<?xml version="1.0" standalone="no"?>
<!DOCTYPE svg PUBLIC "-//W3C//DTD SVG 20010904//EN"
 "http://www.w3.org/TR/2001/REC-SVG-20010904/DTD/svg10.dtd">
<svg version="1.0" xmlns="http://www.w3.org/2000/svg"
 width="626.000000pt" height="626.000000pt" viewBox="0 0 626.000000 626.000000"
 preserveAspectRatio="xMidYMid meet">

<g transform="translate(0.000000,626.000000) scale(0.100000,-0.100000)"
fill="#000000" stroke="none">
<path d="M0 3130 l0 -3130 3130 0 3130 0 0 3130 0 3130 -3130 0 -3130 0 0
-3130z m3230 1380 l75 -145 154 -21 c121 -17 158 -26 168 -40 7 -10 13 -22 13
-28 0 -6 -52 -62 -116 -126 l-117 -115 27 -153 c28 -163 26 -192 -15 -192 -12
0 -80 32 -152 70 -72 39 -135 70 -140 70 -5 0 -71 -33 -148 -72 -192 -101
-197 -96 -156 145 l24 137 -114 110 c-69 67 -113 118 -113 130 0 33 39 47 182
66 76 10 142 20 147 23 5 3 41 70 80 149 68 135 73 143 99 140 24 -3 36 -20
102 -148z m-1187 35 c53 -50 97 -116 149 -220 43 -85 56 -126 60 -185 3 -44 2
-45 -27 -46 -16 -1 -40 -5 -52 -9 -18 -6 -32 2 -72 41 -90 88 -177 257 -196
381 -6 40 -5 43 27 63 47 28 58 26 111 -25z m2206 -156 c132 -46 231 -138 231
-216 0 -46 -42 -124 -78 -145 -139 -81 -458 47 -477 191 -2 17 -7 36 -11 42
-4 8 -3 9 4 5 8 -5 12 5 12 31 0 108 148 151 319 92z m1092 -111 c40 -44 45
-70 24 -125 -22 -58 -123 -161 -188 -192 -46 -22 -49 -22 -67 -6 -14 13 -28
16 -55 11 -50 -10 -85 13 -85 55 0 62 68 155 163 223 107 75 161 84 208 34z
m-2683 -296 c4 -28 -24 -41 -44 -20 -20 20 -7 50 20 46 13 -2 22 -12 24 -26z
m999 12 c3 -8 -2 -23 -11 -32 -15 -15 -17 -15 -32 0 -21 21 -11 48 16 48 11 0
23 -7 27 -16z m257 -79 c20 -21 10 -45 -20 -45 -19 0 -24 5 -24 24 0 13 6 27
13 29 6 3 13 6 14 6 1 1 8 -6 17 -14z m-1525 -9 c9 -11 8 -18 -4 -30 -9 -9
-18 -16 -20 -16 -2 0 -11 7 -20 16 -12 12 -13 19 -4 30 6 8 17 14 24 14 7 0
18 -6 24 -14z m-271 -72 c4 -26 -26 -40 -45 -21 -8 7 -11 21 -7 31 9 24 48 17
52 -10z m2076 9 c10 -26 -23 -48 -42 -29 -8 8 -12 22 -9 30 8 21 43 20 51 -1z
m-3225 -4 c83 -15 144 -43 177 -82 21 -25 24 -37 19 -66 -13 -74 -62 -109
-155 -111 -37 -1 -41 -3 -22 -10 25 -11 29 -32 7 -50 -20 -17 -47 5 -43 34 3
18 -4 22 -50 28 -29 5 -74 17 -100 28 -37 16 -47 26 -48 45 -1 14 -16 41 -33
60 -35 41 -39 65 -13 88 48 43 142 56 261 36z m871 -24 c10 -12 10 -18 0 -30
-25 -30 -61 -7 -46 30 3 8 12 15 19 15 8 0 20 -7 27 -15z m2628 -13 c4 -28
-24 -40 -45 -19 -14 13 -14 19 -3 32 18 22 44 15 48 -13z m-3189 4 c17 -20 2
-48 -23 -44 -24 3 -34 37 -14 49 18 12 24 11 37 -5z m281 -2 c11 -12 10 -18
-3 -31 -8 -9 -23 -13 -31 -10 -19 8 -21 43 -3 50 20 9 24 8 37 -9z m3188 -12
c4 -28 -24 -40 -45 -19 -14 13 -14 19 -3 32 18 22 44 15 48 -13z m270 19 c20
-12 10 -46 -14 -49 -25 -4 -40 24 -23 44 13 16 19 17 37 5z m287 -21 c0 -20
-5 -25 -25 -25 -28 0 -41 32 -18 46 23 15 43 5 43 -21z m2 -236 c8 -21 -19
-46 -40 -38 -17 6 -23 35 -10 47 12 13 44 7 50 -9z m-4510 -160 c3 -8 -2 -23
-11 -32 -15 -15 -17 -15 -32 0 -21 21 -11 48 16 48 11 0 23 -7 27 -16z m4753
-49 c17 -20 5 -45 -20 -45 -23 0 -35 22 -26 45 7 19 30 19 46 0z m-3307 -142
c21 -12 63 -20 122 -23 l90 -5 5 -69 5 -69 45 71 45 72 57 0 c32 0 58 -2 58
-5 0 -3 -27 -45 -59 -94 l-60 -88 71 -89 c39 -49 75 -95 81 -101 7 -10 -6 -13
-60 -13 l-69 0 -55 72 -54 71 -3 -71 -3 -72 -54 0 -55 0 0 135 c0 79 -4 141
-10 148 -6 7 -17 21 -25 32 -14 19 -14 18 -15 -14 0 -28 -3 -32 -17 -25 -10 4
-39 9 -64 12 -38 3 -51 -1 -77 -23 -27 -22 -32 -34 -32 -70 0 -77 68 -119 149
-92 l41 15 0 -54 c0 -50 -2 -55 -27 -65 -16 -6 -54 -9 -85 -7 -137 10 -227
154 -175 281 20 46 85 101 139 116 33 9 45 17 41 27 -7 19 11 18 50 -3z
m-1575 -32 c20 -12 10 -46 -14 -49 -25 -4 -40 24 -23 44 13 16 19 17 37 5z
m782 -141 l0 -150 45 0 c42 0 46 -2 65 -40 11 -21 20 -42 20 -45 0 -3 -54 -5
-120 -5 l-120 0 0 140 c0 77 -4 140 -8 140 -9 0 -52 84 -52 100 0 6 37 10 85
10 l85 0 0 -150z m268 15 c2 -102 6 -133 19 -147 19 -22 52 -23 79 -4 17 13
20 31 24 148 l5 133 50 0 50 0 0 -140 c0 -158 -7 -181 -73 -225 -28 -20 -48
-25 -97 -25 -52 0 -67 4 -98 28 -55 42 -67 73 -67 172 0 47 -4 85 -9 85 -8 0
-61 91 -61 105 0 3 39 4 88 3 l87 -3 3 -130z m1148 85 l36 -50 31 48 c32 47
32 47 95 50 34 2 62 0 62 -3 0 -4 -31 -50 -70 -104 l-70 -98 0 -92 0 -91 -55
0 -55 0 0 96 c0 88 -2 101 -27 140 -16 24 -33 44 -39 44 -13 0 -65 95 -57 104
4 3 30 6 60 6 52 0 54 -1 89 -50z m686 17 c105 -61 126 -192 45 -284 -49 -56
-96 -73 -204 -73 l-93 0 0 140 c0 77 -4 140 -8 140 -9 0 -52 84 -52 101 0 8
41 10 133 7 122 -3 136 -5 179 -31z m379 10 c63 -42 72 -123 21 -186 l-33 -41
42 -56 43 -56 47 121 47 121 -29 53 c-16 28 -29 55 -29 60 0 4 47 7 105 7 92
0 105 -2 114 -19 13 -24 141 -355 141 -364 0 -4 -25 -7 -56 -7 -53 0 -55 1
-70 35 -14 34 -15 35 -74 35 -59 0 -60 -1 -74 -35 l-15 -35 -111 0 -110 0 -40
62 -40 61 0 -61 0 -62 -55 0 -55 0 0 140 c0 77 -4 140 -8 140 -9 0 -62 91 -62
105 0 4 62 5 138 3 110 -2 142 -7 163 -21z m612 -89 c17 -60 34 -108 39 -108
4 0 8 5 8 11 0 6 14 55 31 110 l31 99 43 0 44 0 37 -117 37 -118 14 50 c8 28
23 80 34 118 l20 67 49 0 c41 0 50 -3 50 -17 0 -10 -24 -97 -53 -193 l-54
-175 -55 -3 -55 -3 -28 98 c-36 129 -39 133 -54 81 -7 -24 -22 -74 -33 -111
l-20 -68 -56 3 -55 3 -40 135 c-22 74 -44 137 -49 138 -8 4 -58 95 -58 107 0
3 32 5 72 3 l71 -3 30 -107z m1271 -25 c50 -19 68 -39 46 -53 -7 -4 -13 -23
-14 -41 -1 -31 -5 -34 -60 -56 -119 -46 -299 -52 -426 -15 -76 22 -81 28 -78
80 3 43 4 44 62 69 78 33 156 43 301 38 85 -2 134 -9 169 -22z m-5137 -149 c3
-8 -1 -22 -9 -30 -19 -19 -52 3 -42 29 8 21 43 22 51 1z m4880 -180 c3 -8 -2
-23 -11 -32 -15 -15 -17 -15 -32 0 -21 21 -11 48 16 48 11 0 23 -7 27 -16z
m-4299 -54 c99 -44 162 -120 162 -198 0 -50 -48 -124 -94 -146 -47 -22 -125
-20 -188 5 -69 27 -82 38 -67 55 9 10 6 16 -12 24 -36 17 -81 86 -86 134 -5
44 11 91 41 115 53 44 159 49 244 11z m-468 5 c17 -20 5 -45 -20 -45 -11 0
-23 7 -26 15 -6 15 11 45 26 45 4 0 13 -7 20 -15z m4504 -151 c20 -8 21 -28 2
-43 -18 -15 -46 -4 -46 18 0 29 14 37 44 25z m-4329 -24 c3 -5 1 -10 -4 -10
-6 0 -11 5 -11 10 0 6 2 10 4 10 3 0 8 -4 11 -10z m36 -52 l23 -33 -27 24
c-15 14 -27 28 -27 33 0 15 8 8 31 -24z m6 -184 c3 -8 -2 -23 -11 -32 -15 -15
-17 -15 -32 0 -21 21 -11 48 16 48 11 0 23 -7 27 -16z m280 0 c3 -8 -2 -23
-11 -32 -15 -15 -17 -15 -32 0 -21 21 -11 48 16 48 11 0 23 -7 27 -16z m277
-1 c4 -9 1 -23 -7 -30 -7 -8 -21 -11 -30 -7 -17 6 -23 35 -10 47 12 13 41 7
47 -10z m3184 -9 c4 -26 -26 -40 -45 -21 -8 7 -11 21 -7 31 9 24 48 17 52 -10z
m279 10 c3 -8 -2 -23 -11 -32 -14 -15 -18 -15 -31 -1 -9 9 -13 23 -9 32 8 21
43 22 51 1z m280 0 c3 -8 -2 -23 -11 -32 -15 -15 -17 -15 -32 0 -21 21 -11 48
16 48 11 0 23 -7 27 -16z m-3466 -10 c11 -14 10 -18 -5 -29 -22 -17 -46 -9
-46 14 0 34 28 42 51 15z m2627 -10 c4 -28 -28 -41 -45 -19 -16 23 -5 47 21
43 13 -2 22 -11 24 -24z m-2358 -19 c15 -18 6 -45 -13 -45 -8 0 -20 7 -27 15
-10 12 -10 18 0 30 16 19 24 19 40 0z m2080 0 c10 -12 10 -18 0 -30 -25 -30
-61 -7 -46 30 3 8 12 15 19 15 8 0 20 -7 27 -15z m-1802 -79 c-4 -25 -43 -34
-51 -12 -4 9 1 22 9 30 20 20 46 9 42 -18z m1530 6 c4 -26 -22 -40 -43 -22
-11 9 -12 17 -4 32 13 25 43 19 47 -10z m-1268 -77 c10 -12 10 -18 0 -30 -16
-19 -39 -19 -46 0 -6 15 11 45 26 45 4 0 13 -7 20 -15z m1007 -1 c3 -8 -2 -23
-11 -32 -15 -15 -17 -15 -32 0 -21 21 -11 48 16 48 11 0 23 -7 27 -16z m-763
-100 c20 -8 21 -43 1 -50 -24 -10 -47 14 -34 37 11 21 11 21 33 13z m504 -22
c4 -28 -24 -40 -45 -19 -14 13 -14 19 -3 32 18 22 44 15 48 -13z"/>
<path d="M3075 4415 c-27 -58 -56 -112 -65 -119 -8 -7 -58 -19 -110 -25 -160
-21 -155 -10 -50 -116 l91 -92 -21 -117 c-12 -65 -19 -120 -16 -123 2 -3 54
21 113 53 l109 58 109 -57 c59 -31 110 -55 113 -52 3 2 -3 49 -12 103 -9 54
-16 109 -16 122 0 17 25 50 86 111 99 99 104 88 -51 109 -44 6 -88 14 -98 16
-10 3 -41 53 -75 121 l-58 115 -49 -107z m85 -189 c16 -26 29 -36 53 -38 39
-4 48 -35 17 -63 -14 -13 -20 -30 -20 -62 0 -48 -13 -54 -60 -29 -21 12 -29
12 -53 -1 -43 -22 -61 -11 -54 34 5 31 2 42 -20 65 -32 34 -25 58 17 58 24 0
35 7 51 35 26 44 42 44 69 1z"/>
<path d="M3190 4469 c0 -5 5 -7 10 -4 6 3 10 8 10 11 0 2 -4 4 -10 4 -5 0 -10
-5 -10 -11z"/>
<path d="M3010 4400 c0 -5 5 -10 10 -10 6 0 10 5 10 10 0 6 -4 10 -10 10 -5 0
-10 -4 -10 -10z"/>
<path d="M2975 4330 c-3 -5 -1 -10 4 -10 6 0 11 5 11 10 0 6 -2 10 -4 10 -3 0
-8 -4 -11 -10z"/>
<path d="M2815 4300 c3 -5 8 -10 11 -10 2 0 4 5 4 10 0 6 -5 10 -11 10 -5 0
-7 -4 -4 -10z"/>
<path d="M2735 4290 c3 -5 8 -10 11 -10 2 0 4 5 4 10 0 6 -5 10 -11 10 -5 0
-7 -4 -4 -10z"/>
<path d="M3505 4290 c3 -5 8 -10 11 -10 2 0 4 5 4 10 0 6 -5 10 -11 10 -5 0
-7 -4 -4 -10z"/>
<path d="M2650 4280 c0 -5 5 -10 10 -10 6 0 10 5 10 10 0 6 -4 10 -10 10 -5 0
-10 -4 -10 -10z"/>
<path d="M2845 3810 c3 -5 8 -10 11 -10 2 0 4 5 4 10 0 6 -5 10 -11 10 -5 0
-7 -4 -4 -10z"/>
<path d="M2975 3810 c-3 -5 -1 -10 4 -10 6 0 11 5 11 10 0 6 -2 10 -4 10 -3 0
-8 -4 -11 -10z"/>
<path d="M3260 3810 c0 -5 5 -10 10 -10 6 0 10 5 10 10 0 6 -4 10 -10 10 -5 0
-10 -4 -10 -10z"/>
<path d="M2905 3770 c3 -5 8 -10 11 -10 2 0 4 5 4 10 0 6 -5 10 -11 10 -5 0
-7 -4 -4 -10z"/>
<path d="M2830 3729 c0 -5 5 -7 10 -4 6 3 10 8 10 11 0 2 -4 4 -10 4 -5 0 -10
-5 -10 -11z"/>
<path d="M3410 2980 c0 -55 3 -100 8 -100 4 0 24 5 45 11 39 10 77 56 77 91 0
51 -50 98 -105 98 l-25 0 0 -100z"/>
<path d="M3810 3050 c0 -35 3 -40 23 -40 49 0 65 54 21 70 -40 16 -44 13 -44
-30z"/>
<path d="M4182 2985 c-13 -45 -12 -48 22 -43 l25 3 -17 39 -18 39 -12 -38z"/>
</g>
</svg>
